<svg width="59" height="56" viewBox="0 0 59 56" fill="none" xmlns="http://www.w3.org/2000/svg">
<path d="M2.71398 20.875H56.536" stroke="#42A5F5" stroke-width="4" stroke-linecap="square"/>
<path d="M2.71398 36.625H56.536" stroke="#42A5F5" stroke-width="4" stroke-linecap="square"/>
<path d="M29.25 2.5C29.25 2.5 19.2878 14.0775 19.5035 28.75C19.7191 43.4225 29.25 53.5 29.25 53.5" stroke="#42A5F5" stroke-width="4" stroke-linecap="round" stroke-linejoin="round"/>
<path d="M30 2.5C30 2.5 39.9622 14.0775 39.7465 28.75C39.5309 43.4225 30 53.5 30 53.5" stroke="#42A5F5" stroke-width="4" stroke-linecap="round" stroke-linejoin="round"/>
<path fill-rule="evenodd" clip-rule="evenodd" d="M40.1946 17.0278C40.3946 16.9123 40.6151 16.8406 40.8456 16.8261C41.8621 16.7621 44.798 16.678 45.4347 17.7809C46.0715 18.8838 44.5298 21.3837 43.966 22.2314C43.8383 22.4235 43.666 22.5784 43.4662 22.6938L37.3904 26.2016L38.2343 43.302C38.2461 43.5414 38.125 43.7679 37.9193 43.8911L36.67 44.6393C36.5055 44.7379 36.3057 44.7586 36.1244 44.696L35.1776 44.369C35.019 44.3143 34.8877 44.2002 34.8114 44.0508L28.3534 31.4192L21.9843 35.0964L21.2974 39.7678C21.2498 40.0912 20.9693 40.3288 20.6426 40.3226L20.1446 40.3132C19.8927 40.3084 19.6663 40.1583 19.5638 39.9282L17.7741 35.9122C16.5439 35.9515 15.3891 35.8306 15.0792 35.294C14.7697 34.7579 15.2429 33.7021 15.893 32.6611L13.3295 29.1301C13.1815 28.9263 13.1648 28.6552 13.2866 28.4347L13.5274 27.9987C13.6854 27.7126 14.0314 27.5886 14.3352 27.709L18.6974 29.4392L25.0779 25.7555L17.4192 13.9267C17.328 13.7858 17.2948 13.6152 17.3267 13.4504L17.517 12.4669C17.5534 12.2786 17.6712 12.116 17.8389 12.0228L19.1115 11.315C19.321 11.1984 19.5777 11.2068 19.7791 11.3368L34.0768 20.5599L40.1946 17.0278Z" fill="white"/>
<mask id="mask0_0:1" style="mask-type:alpha" maskUnits="userSpaceOnUse" x="13" y="11" width="33" height="34">
<path fill-rule="evenodd" clip-rule="evenodd" d="M40.1946 17.0278C40.3946 16.9123 40.6151 16.8406 40.8456 16.8261C41.8621 16.7621 44.798 16.678 45.4347 17.7809C46.0715 18.8838 44.5298 21.3837 43.966 22.2314C43.8383 22.4235 43.666 22.5784 43.4662 22.6938L37.3904 26.2016L38.2343 43.302C38.2461 43.5414 38.125 43.7679 37.9193 43.8911L36.67 44.6393C36.5055 44.7379 36.3057 44.7586 36.1244 44.696L35.1776 44.369C35.019 44.3143 34.8877 44.2002 34.8114 44.0508L28.3534 31.4192L21.9843 35.0964L21.2974 39.7678C21.2498 40.0912 20.9693 40.3288 20.6426 40.3226L20.1446 40.3132C19.8927 40.3084 19.6663 40.1583 19.5638 39.9282L17.7741 35.9122C16.5439 35.9515 15.3891 35.8306 15.0792 35.294C14.7697 34.7579 15.2429 33.7021 15.893 32.6611L13.3295 29.1301C13.1815 28.9263 13.1648 28.6552 13.2866 28.4347L13.5274 27.9987C13.6854 27.7126 14.0314 27.5886 14.3352 27.709L18.6974 29.4392L25.0779 25.7555L17.4192 13.9267C17.328 13.7858 17.2948 13.6152 17.3267 13.4504L17.517 12.4669C17.5534 12.2786 17.6712 12.116 17.8389 12.0228L19.1115 11.315C19.321 11.1984 19.5777 11.2068 19.7791 11.3368L34.0768 20.5599L40.1946 17.0278Z" fill="white"/>
</mask>
<g mask="url(#mask0_0:1)">
<rect x="34.536" y="18.7839" width="1.30853" height="12.4084" transform="rotate(60 34.536 18.7839)" fill="#EBECF2"/>
<path fill-rule="evenodd" clip-rule="evenodd" d="M37.9193 43.8911C38.125 43.7679 38.246 43.5415 38.2342 43.302L37.3628 25.6426L28.1264 30.9752L34.8113 44.0508C34.8877 44.2002 35.0189 44.3143 35.1775 44.369L36.1244 44.696C36.3057 44.7587 36.5054 44.7379 36.67 44.6393L37.9193 43.8911Z" fill="#DEE1E3"/>
<path opacity="0.4" fill-rule="evenodd" clip-rule="evenodd" d="M17.8366 35.8013L17.7476 35.8527L19.5638 39.9282C19.6664 40.1584 19.8928 40.3084 20.1447 40.3132L20.6426 40.3226C20.9694 40.3288 21.2498 40.0912 21.2974 39.7678L22.023 34.8334L21.56 35.1007C21.4167 35.1834 21.2626 35.2452 21.1011 35.2813C20.551 35.4041 19.1548 35.6951 17.8366 35.8013Z" fill="#DEE1E3"/>
<path fill-rule="evenodd" clip-rule="evenodd" d="M28.2482 31.2134L37.3776 25.9426L37.4768 27.9539L29.9559 34.5538L28.2482 31.2134Z" fill="#C5C6CC"/>
<path fill-rule="evenodd" clip-rule="evenodd" d="M46.4823 20.9524L16.6913 38.1523C16.6913 38.1523 15.8123 36.5636 15.0793 35.2939C15.0704 35.2786 15.062 35.263 15.0541 35.2473C16.4056 35.345 19.1269 35.2351 21.7661 33.7114L42.3906 21.8038C44.6822 20.4807 45.2435 18.7674 45.5526 18.0309C46.0312 19.316 46.4823 20.9524 46.4823 20.9524Z" fill="#DEE1E3"/>
</g>
</svg>
